<?xml version="1.0" standalone="no"?>
<!DOCTYPE svg PUBLIC "-//W3C//DTD SVG 20010904//EN"
 "http://www.w3.org/TR/2001/REC-SVG-20010904/DTD/svg10.dtd">
<svg version="1.0" xmlns="http://www.w3.org/2000/svg"
 width="265.000000pt" height="263.000000pt" viewBox="0 0 265.000000 263.000000"
 preserveAspectRatio="xMidYMid meet">

<g transform="translate(0.000000,263.000000) scale(0.100000,-0.100000)"
fill="#000000" stroke="none">
<path d="M1780 2584 c0 -16 -3 -40 -6 -54 -4 -19 -3 -22 5 -10 12 18 12 20 45
-115 14 -55 50 -182 81 -283 76 -253 95 -353 95 -503 l0 -122 -137 6 c-76 4
-188 10 -249 13 -129 8 -156 3 -177 -30 l-16 -24 39 5 38 5 -1 -78 c-1 -104
10 -124 68 -124 30 0 45 -4 45 -13 0 -21 -22 -37 -52 -37 -35 0 -36 -17 -3
-30 41 -16 148 -23 177 -12 39 16 70 105 72 204 l1 78 50 0 c105 0 110 -10 75
-139 -12 -40 -18 -76 -16 -79 3 -3 19 26 36 64 17 38 38 74 47 81 21 16 39
295 24 380 -5 32 -46 177 -90 323 -45 146 -95 321 -112 390 -17 68 -32 127
-35 129 -2 2 -4 -9 -4 -25z m-60 -1179 c0 -8 -9 -15 -20 -15 -20 0 -26 11 -13
23 12 13 33 7 33 -8z"/>
<path d="M1727 2357 c-46 -134 -123 -253 -336 -521 -125 -158 -177 -249 -193
-337 -7 -41 -13 -57 -19 -48 -13 21 -10 145 6 234 17 95 18 106 4 82 -13 -23
-39 -233 -38 -312 1 -33 4 -51 6 -41 4 15 9 11 22 -20 l18 -39 7 87 c9 100 36
167 117 284 64 91 100 124 142 125 l32 1 -27 10 -28 10 59 76 c88 117 169 240
200 307 34 72 64 161 59 175 -2 5 -16 -27 -31 -73z"/>
<path d="M592 2345 c-7 -32 -10 -60 -8 -62 6 -6 28 95 24 109 -3 7 -10 -14
-16 -47z"/>
<path d="M567 2165 c-4 -22 -6 -60 -6 -85 1 -38 3 -35 11 25 9 77 6 123 -5 60z"/>
<path d="M2380 1958 c0 -124 -27 -523 -60 -888 -68 -748 -92 -1085 -75 -1068
3 3 19 176 35 384 17 209 41 503 55 654 13 151 29 338 35 415 13 183 25 585
17 585 -4 0 -7 -37 -7 -82z"/>
<path d="M572 1988 c-11 -39 -74 -340 -82 -395 -14 -88 -2 -182 41 -322 16
-52 27 -96 25 -98 -5 -5 -116 131 -148 182 -14 22 -42 78 -62 125 -50 114 -63
123 -27 19 17 -46 39 -138 50 -204 38 -221 80 -321 181 -429 l65 -69 -65 5
c-80 6 -120 26 -182 86 -27 26 -48 41 -48 35 0 -20 48 -70 98 -102 26 -17 63
-51 82 -76 43 -58 161 -160 262 -228 l77 -52 1 -101 c0 -155 -13 -186 -118
-283 l-87 -81 132 0 c72 0 143 4 158 10 52 20 68 129 45 294 -6 38 -8 71 -6
73 2 3 54 -23 114 -57 l111 -62 83 38 c46 20 140 66 211 101 105 52 127 60
128 46 1 -10 5 -76 8 -148 l8 -130 1 151 2 151 51 32 c28 17 52 31 53 31 2 0
6 -49 10 -109 3 -62 17 -150 30 -201 l24 -92 -24 6 c-13 4 -51 9 -84 13 l-60
6 0 -41 c0 -45 15 -93 33 -104 21 -13 223 -9 234 5 12 15 31 226 43 469 6 121
14 198 23 221 8 19 38 60 67 92 28 31 49 59 47 61 -3 3 -29 -19 -58 -49 -36
-35 -71 -60 -104 -71 -96 -34 -96 -43 0 -20 36 9 -86 -97 -192 -166 -125 -81
-491 -270 -525 -270 -27 0 -246 131 -450 268 -85 58 -160 117 -199 160 l-63
67 79 3 c44 2 84 7 89 12 5 5 -9 17 -32 29 -113 57 -217 270 -238 483 -7 69
-8 70 54 -12 42 -56 172 -190 172 -177 0 3 -11 31 -25 62 l-24 56 37 -8 c39
-7 54 -8 114 -5 36 2 37 3 49 57 7 31 15 58 19 60 4 2 49 -32 101 -76 89 -75
251 -171 265 -156 4 3 -10 25 -30 49 -44 51 -89 141 -109 221 -8 31 -14 57
-12 57 1 0 26 -46 53 -102 28 -57 62 -116 76 -133 l25 -30 0 40 c0 28 -3 34
-8 21 -7 -17 -9 -16 -29 12 -65 91 -122 259 -122 362 0 44 15 157 26 194 4 10
2 16 -3 13 -17 -11 -38 -159 -37 -262 2 -144 47 -291 120 -392 20 -28 6 -30
-39 -7 -96 50 -250 200 -331 323 -54 83 -83 146 -111 239 -10 34 -20 60 -22
58 -5 -4 28 -131 43 -170 7 -18 3 -19 -61 -13 -37 4 -69 8 -71 10 -9 8 47 241
61 257 12 13 15 33 12 81 -2 35 -4 61 -5 57z m128 -533 c0 -8 -7 -15 -15 -15
-8 0 -15 7 -15 15 0 8 7 15 15 15 8 0 15 -7 15 -15z m-109 -125 c29 -16 23
-30 -14 -30 -40 0 -51 8 -36 27 14 16 24 16 50 3z m1339 -692 c0 -116 -36
-525 -50 -562 -5 -15 -12 -9 -38 37 -50 88 -75 194 -76 320 l-1 108 75 69 c41
38 78 69 83 70 4 0 7 -19 7 -42z m-991 -262 c13 -39 34 -197 27 -203 -2 -2
-30 -1 -61 2 l-57 8 5 61 c4 33 9 93 13 133 l6 72 29 -21 c16 -12 33 -35 38
-52z"/>
<path d="M1491 1880 c8 -4 86 -10 174 -13 114 -4 150 -3 125 4 -41 12 -320 20
-299 9z"/>
<path d="M1528 1779 l-33 -31 36 21 c19 11 46 25 60 30 l24 10 -27 0 c-18 1
-39 -10 -60 -30z"/>
<path d="M270 1689 c0 -19 5 -41 10 -49 7 -10 8 -1 4 30 -8 56 -14 64 -14 19z"/>
<path d="M1528 1553 c6 -2 18 -2 25 0 6 3 1 5 -13 5 -14 0 -19 -2 -12 -5z"/>
<path d="M1458 1543 c7 -3 16 -2 19 1 4 3 -2 6 -13 5 -11 0 -14 -3 -6 -6z"/>
<path d="M1990 1281 c0 -53 -35 -225 -66 -321 -32 -102 -96 -198 -149 -225
-37 -18 -38 -20 -15 -23 59 -9 158 152 205 333 24 95 45 275 31 275 -3 0 -6
-18 -6 -39z"/>
<path d="M2165 1168 c-3 -13 -12 -53 -20 -89 -8 -36 -21 -85 -30 -108 -19 -55
-19 -86 0 -50 24 43 75 269 61 269 -3 0 -8 -10 -11 -22z"/>
<path d="M161 996 c-1 -16 17 -153 39 -305 22 -152 49 -366 60 -476 12 -110
23 -202 26 -204 13 -14 -32 409 -76 716 -42 287 -48 318 -49 269z"/>
<path d="M280 1004 c0 -6 7 -19 16 -30 14 -18 14 -18 3 6 -14 31 -19 36 -19
24z"/>
<path d="M541 590 c-1 -41 26 -430 35 -513 3 -32 8 -56 11 -54 7 8 -28 560
-37 582 -7 16 -9 14 -9 -15z"/>
<path d="M741 400 c-7 -25 -21 -76 -32 -115 -10 -38 -35 -112 -54 -164 -36
-97 -42 -122 -26 -105 30 30 136 365 129 407 -3 16 -7 11 -17 -23z"/>
<path d="M1986 333 c-8 -29 -43 -223 -50 -278 -5 -41 -4 -45 5 -25 12 29 61
311 55 317 -2 3 -7 -4 -10 -14z"/>
<path d="M2485 310 c15 -80 77 -296 87 -305 14 -14 4 33 -43 194 -37 130 -58
182 -44 111z"/>
<path d="M2277 63 c-4 -3 -7 -16 -6 -27 0 -19 1 -19 10 3 10 24 8 36 -4 24z"/>
</g>
</svg>
